<svg xmlns="http://www.w3.org/2000/svg" xmlns:xlink="http://www.w3.org/1999/xlink" version="1.1" width="256" height="256" viewBox="0 0 256 256" xml:space="preserve">
<desc>Created with Fabric.js 1.7.22</desc>
<defs>
</defs>
<g transform="translate(128 128) scale(0.72 0.72)" style="">
	<g style="stroke: none; stroke-width: 0; stroke-dasharray: none; stroke-linecap: butt; stroke-linejoin: miter; stroke-miterlimit: 10; fill: none; fill-rule: nonzero; opacity: 1;" transform="translate(-175.05 -175.05000000000004) scale(3.89 3.89)" >
	<path d="M 18.806 69.924 C 8.437 69.924 0 61.488 0 51.119 c 0 -10.37 8.437 -18.806 18.806 -18.806 s 18.806 8.437 18.806 18.806 C 37.612 61.488 29.176 69.924 18.806 69.924 z M 18.806 35.279 c -8.734 0 -15.839 7.106 -15.839 15.839 c 0 8.733 7.106 15.839 15.839 15.839 s 15.839 -7.106 15.839 -15.839 C 34.645 42.385 27.54 35.279 18.806 35.279 z" style="stroke: none; stroke-width: 1; stroke-dasharray: none; stroke-linecap: butt; stroke-linejoin: miter; stroke-miterlimit: 10; fill: rgb(42,70,111); fill-rule: nonzero; opacity: 1;" transform=" matrix(1 0 0 1 0 0) " stroke-linecap="round" />
	<path d="M 71.194 69.924 c -10.37 0 -18.807 -8.437 -18.807 -18.806 c 0 -10.37 8.437 -18.806 18.807 -18.806 C 81.563 32.312 90 40.749 90 51.119 C 90 61.488 81.563 69.924 71.194 69.924 z M 71.194 35.279 c -8.734 0 -15.84 7.106 -15.84 15.839 c 0 8.733 7.106 15.839 15.84 15.839 c 8.733 0 15.839 -7.106 15.839 -15.839 C 87.033 42.385 79.927 35.279 71.194 35.279 z" style="stroke: none; stroke-width: 1; stroke-dasharray: none; stroke-linecap: butt; stroke-linejoin: miter; stroke-miterlimit: 10; fill: rgb(42,70,111); fill-rule: nonzero; opacity: 1;" transform=" matrix(1 0 0 1 0 0) " stroke-linecap="round" />
	<path d="M 72.48 50.379 L 59.468 27.782 l 3.351 -5.445 c 0.282 -0.458 0.294 -1.032 0.032 -1.501 c -0.263 -0.469 -0.758 -0.76 -1.295 -0.76 h -8.423 c -0.819 0 -1.484 0.664 -1.484 1.484 s 0.664 1.484 1.484 1.484 h 5.768 l -1.988 3.231 H 32.346 l -0.55 -1.006 h 1.233 c 0.82 0 1.484 -0.664 1.484 -1.484 s -0.664 -1.484 -1.484 -1.484 H 21.825 c -0.82 0 -1.484 0.664 -1.484 1.484 s 0.664 1.484 1.484 1.484 h 6.589 l 1.311 2.398 L 17.499 50.416 c -0.247 0.46 -0.234 1.015 0.033 1.463 c 0.268 0.448 0.751 0.722 1.273 0.722 H 42.75 v 2.118 h -2.331 c -0.82 0 -1.484 0.664 -1.484 1.484 s 0.664 1.484 1.484 1.484 h 6.516 c 0.819 0 1.484 -0.664 1.484 -1.484 s -0.664 -1.484 -1.484 -1.484 h -1.218 v -3.204 L 57.74 30.725 l 12.169 21.133 c 0.274 0.477 0.774 0.744 1.286 0.744 c 0.251 0 0.506 -0.064 0.739 -0.198 C 72.645 51.996 72.888 51.089 72.48 50.379 z M 31.424 30.773 l 10.309 18.862 H 21.287 L 31.424 30.773 z M 44.27 48.092 L 33.967 29.241 h 21.204 L 44.27 48.092 z" style="stroke: none; stroke-width: 1; stroke-dasharray: none; stroke-linecap: butt; stroke-linejoin: miter; stroke-miterlimit: 10; fill: rgb(87,134,204); fill-rule: nonzero; opacity: 1;" transform=" matrix(1 0 0 1 0 0) " stroke-linecap="round" />
</g>
</g>
</svg>