<svg xmlns="http://www.w3.org/2000/svg" xmlns:xlink="http://www.w3.org/1999/xlink" version="1.1" width="256" height="256" viewBox="0 0 256 256" xml:space="preserve">
<desc>Created with Fabric.js 1.7.22</desc>
<defs>
</defs>
<g transform="translate(128 128) scale(0.72 0.72)" style="">
	<g style="stroke: none; stroke-width: 0; stroke-dasharray: none; stroke-linecap: butt; stroke-linejoin: miter; stroke-miterlimit: 10; fill: none; fill-rule: nonzero; opacity: 1;" transform="translate(-175.05 -175.05000000000004) scale(3.89 3.89)" >
	<path d="M 56.035 57.508 H 4.151 C 1.862 57.508 0 55.646 0 53.356 V 15.627 c 0 -2.289 1.862 -4.151 4.151 -4.151 h 76.911 c 2.289 0 4.151 1.862 4.151 4.151 v 33.644 c 0 1.104 -0.896 2 -2 2 s -2 -0.896 -2 -2 V 15.627 c 0 -0.083 -0.068 -0.151 -0.151 -0.151 H 4.151 C 4.068 15.476 4 15.544 4 15.627 v 37.729 c 0 0.083 0.068 0.151 0.151 0.151 h 51.884 c 1.104 0 2 0.896 2 2 S 57.14 57.508 56.035 57.508 z" style="stroke: none; stroke-width: 1; stroke-dasharray: none; stroke-linecap: butt; stroke-linejoin: miter; stroke-miterlimit: 10; fill: rgb(248,152,32); fill-rule: nonzero; opacity: 1;" transform=" matrix(1 0 0 1 0 0) " stroke-linecap="round" />
	<path d="M 29.691 26.355 c 0 -3.717 -3.024 -6.742 -6.742 -6.742 h -9.611 c -1.104 0 -2 0.896 -2 2 v 12.27 v 12.27 c 0 1.104 0.896 2 2 2 h 9.611 c 3.717 0 6.742 -3.024 6.742 -6.742 v -2.786 c 0 -1.847 -0.748 -3.523 -1.956 -4.742 c 1.208 -1.219 1.956 -2.894 1.956 -4.742 V 26.355 z M 15.338 23.613 h 7.611 c 1.512 0 2.742 1.23 2.742 2.742 v 2.786 c 0 1.512 -1.23 2.742 -2.742 2.742 h -7.611 V 23.613 z M 25.691 41.411 c 0 1.512 -1.23 2.742 -2.742 2.742 h -7.611 v -8.27 h 7.611 c 1.512 0 2.742 1.23 2.742 2.742 V 41.411 z" style="stroke: none; stroke-width: 1; stroke-dasharray: none; stroke-linecap: butt; stroke-linejoin: miter; stroke-miterlimit: 10; fill: rgb(35,35,35); fill-rule: nonzero; opacity: 1;" transform=" matrix(1 0 0 1 0 0) " stroke-linecap="round" />
	<path d="M 43.216 48.152 c -5.06 0 -9.176 -3.823 -9.176 -8.522 V 21.613 c 0 -1.104 0.896 -2 2 -2 s 2 0.896 2 2 V 39.63 c 0 2.494 2.322 4.522 5.176 4.522 c 2.854 0 5.177 -2.029 5.177 -4.522 V 21.613 c 0 -1.104 0.896 -2 2 -2 s 2 0.896 2 2 V 39.63 C 52.393 44.329 48.276 48.152 43.216 48.152 z" style="stroke: none; stroke-width: 1; stroke-dasharray: none; stroke-linecap: butt; stroke-linejoin: miter; stroke-miterlimit: 10; fill: rgb(35,35,35); fill-rule: nonzero; opacity: 1;" transform=" matrix(1 0 0 1 0 0) " stroke-linecap="round" />
	<path d="M 72.935 19.917 c -0.938 -0.586 -2.172 -0.299 -2.756 0.637 l -5.48 8.777 l -5.48 -8.777 c -0.584 -0.937 -1.816 -1.224 -2.756 -0.637 c -0.937 0.585 -1.222 1.818 -0.637 2.755 l 6.873 11.008 v 12.472 c 0 1.104 0.896 2 2 2 s 2 -0.896 2 -2 V 33.68 l 6.873 -11.008 C 74.156 21.735 73.871 20.502 72.935 19.917 z" style="stroke: none; stroke-width: 1; stroke-dasharray: none; stroke-linecap: butt; stroke-linejoin: miter; stroke-miterlimit: 10; fill: rgb(35,35,35); fill-rule: nonzero; opacity: 1;" transform=" matrix(1 0 0 1 0 0) " stroke-linecap="round" />
	<path d="M 82.424 78.524 L 82.424 78.524 c -0.53 0 -1.039 -0.211 -1.414 -0.586 l -6.59 -6.591 l -2.655 2.655 c -0.5 0.499 -1.227 0.698 -1.91 0.523 c -0.685 -0.176 -1.226 -0.699 -1.424 -1.377 l -5.652 -19.366 c -0.205 -0.701 -0.011 -1.458 0.506 -1.975 s 1.277 -0.709 1.975 -0.506 l 19.367 5.652 c 0.678 0.198 1.202 0.739 1.377 1.424 s -0.023 1.411 -0.523 1.91 l -2.655 2.654 l 6.59 6.591 c 0.781 0.781 0.781 2.047 0 2.828 l -5.576 5.576 C 83.463 78.313 82.954 78.524 82.424 78.524 z M 74.42 66.52 L 74.42 66.52 c 0.53 0 1.039 0.211 1.414 0.586 l 6.59 6.591 l 2.748 -2.748 l -6.59 -6.591 c -0.375 -0.375 -0.586 -0.884 -0.586 -1.414 s 0.211 -1.039 0.586 -1.414 l 1.681 -1.681 l -12.622 -3.684 l 3.684 12.622 l 1.682 -1.682 C 73.381 66.73 73.89 66.52 74.42 66.52 z" style="stroke: none; stroke-width: 1; stroke-dasharray: none; stroke-linecap: butt; stroke-linejoin: miter; stroke-miterlimit: 10; fill: rgb(248,152,32); fill-rule: nonzero; opacity: 1;" transform=" matrix(1 0 0 1 0 0) " stroke-linecap="round" />
</g>
</g>
</svg>