<svg xmlns="http://www.w3.org/2000/svg" xmlns:xlink="http://www.w3.org/1999/xlink" version="1.1" width="256" height="256" viewBox="0 0 256 256" xml:space="preserve">
<desc>Created with Fabric.js 1.7.22</desc>
<defs>
</defs>
<g transform="translate(128 128) scale(0.72 0.72)" style="">
	<g style="stroke: none; stroke-width: 0; stroke-dasharray: none; stroke-linecap: butt; stroke-linejoin: miter; stroke-miterlimit: 10; fill: none; fill-rule: nonzero; opacity: 1;" transform="translate(-175.05 -175.05000000000004) scale(3.89 3.89)" >
	<circle cx="45" cy="45" r="44.5" style="stroke: none; stroke-width: 1; stroke-dasharray: none; stroke-linecap: butt; stroke-linejoin: miter; stroke-miterlimit: 10; fill: rgb(62,108,144); fill-rule: nonzero; opacity: 1;" transform="  matrix(1 0 0 1 0 0) "/>
	<circle cx="45" cy="45" r="34.5" style="stroke: none; stroke-width: 1; stroke-dasharray: none; stroke-linecap: butt; stroke-linejoin: miter; stroke-miterlimit: 10; fill: rgb(221,218,236); fill-rule: nonzero; opacity: 1;" transform="  matrix(1 0 0 1 0 0) "/>
	<circle cx="45" cy="45" r="24.5" style="stroke: none; stroke-width: 1; stroke-dasharray: none; stroke-linecap: butt; stroke-linejoin: miter; stroke-miterlimit: 10; fill: rgb(62,108,144); fill-rule: nonzero; opacity: 1;" transform="  matrix(1 0 0 1 0 0) "/>
	<circle cx="45" cy="45" r="10" style="stroke: none; stroke-width: 1; stroke-dasharray: none; stroke-linecap: butt; stroke-linejoin: miter; stroke-miterlimit: 10; fill: rgb(221,99,110); fill-rule: nonzero; opacity: 1;" transform="  matrix(1 0 0 1 0 0) "/>
	<path d="M 58.906 41.925 h -0.739 c -0.629 0 -1.203 -0.388 -1.409 -0.982 c -0.165 -0.478 -0.358 -0.942 -0.578 -1.391 c -0.275 -0.562 -0.145 -1.239 0.297 -1.682 l 0.53 -0.53 c 0.232 -0.232 0.232 -0.608 0 -0.84 l -3.508 -3.508 c -0.232 -0.232 -0.608 -0.232 -0.84 0 l -0.53 0.53 c -0.443 0.443 -1.119 0.572 -1.682 0.297 c -0.449 -0.22 -0.914 -0.413 -1.391 -0.578 c -0.594 -0.205 -0.982 -0.78 -0.982 -1.409 v -0.739 c 0 -0.328 -0.266 -0.594 -0.594 -0.594 h -4.961 c -0.328 0 -0.594 0.266 -0.594 0.594 v 0.739 c 0 0.629 -0.388 1.203 -0.982 1.409 c -0.478 0.165 -0.942 0.358 -1.391 0.578 c -0.562 0.275 -1.239 0.146 -1.682 -0.297 l -0.53 -0.53 c -0.232 -0.232 -0.608 -0.232 -0.84 0 l -3.508 3.508 c -0.232 0.232 -0.232 0.608 0 0.84 l 0.53 0.53 c 0.443 0.443 0.572 1.119 0.297 1.682 c -0.22 0.449 -0.413 0.913 -0.578 1.391 c -0.205 0.594 -0.78 0.982 -1.409 0.982 h -0.739 c -0.328 0 -0.594 0.266 -0.594 0.594 v 4.961 c 0 0.328 0.266 0.594 0.594 0.594 h 0.739 c 0.629 0 1.203 0.387 1.409 0.982 c 0.165 0.478 0.358 0.942 0.578 1.391 c 0.275 0.562 0.145 1.239 -0.297 1.682 l -0.53 0.53 c -0.232 0.232 -0.232 0.608 0 0.84 l 3.508 3.508 c 0.232 0.232 0.608 0.232 0.84 0 l 0.53 -0.53 c 0.443 -0.443 1.119 -0.572 1.682 -0.297 c 0.449 0.22 0.913 0.413 1.391 0.578 c 0.594 0.205 0.982 0.78 0.982 1.409 v 0.739 c 0 0.328 0.266 0.594 0.594 0.594 h 4.961 c 0.328 0 0.594 -0.266 0.594 -0.594 v -0.739 c 0 -0.629 0.388 -1.203 0.982 -1.409 c 0.478 -0.165 0.942 -0.358 1.391 -0.578 c 0.562 -0.275 1.239 -0.146 1.682 0.297 l 0.53 0.53 c 0.232 0.232 0.608 0.232 0.84 0 l 3.508 -3.508 c 0.232 -0.232 0.232 -0.608 0 -0.84 l -0.53 -0.53 c -0.443 -0.443 -0.572 -1.119 -0.297 -1.682 c 0.22 -0.449 0.413 -0.914 0.578 -1.391 c 0.205 -0.594 0.78 -0.982 1.409 -0.982 h 0.739 c 0.328 0 0.594 -0.266 0.594 -0.594 v -4.961 C 59.5 42.191 59.234 41.925 58.906 41.925 z M 45.343 49.208 c -2.601 0.205 -4.755 -1.949 -4.55 -4.55 c 0.161 -2.046 1.819 -3.704 3.865 -3.865 c 2.601 -0.205 4.755 1.949 4.55 4.55 C 49.047 47.389 47.389 49.046 45.343 49.208 z" style="stroke: none; stroke-width: 1; stroke-dasharray: none; stroke-linecap: butt; stroke-linejoin: miter; stroke-miterlimit: 10; fill: rgb(221,218,236); fill-rule: nonzero; opacity: 1;" transform=" matrix(1 0 0 1 0 0) " stroke-linecap="round" />
	<path d="M 47.48 60 h -4.961 c -0.603 0 -1.094 -0.49 -1.094 -1.094 v -0.739 c 0 -0.427 -0.259 -0.803 -0.645 -0.936 c -0.492 -0.17 -0.979 -0.373 -1.448 -0.602 c -0.363 -0.179 -0.81 -0.098 -1.108 0.201 l -0.529 0.529 c -0.412 0.413 -1.135 0.414 -1.548 0 l -3.508 -3.508 c -0.207 -0.207 -0.32 -0.481 -0.32 -0.773 c 0 -0.293 0.114 -0.567 0.321 -0.773 l 0.529 -0.53 c 0.298 -0.299 0.379 -0.744 0.201 -1.108 c -0.231 -0.474 -0.434 -0.961 -0.601 -1.447 c -0.133 -0.386 -0.51 -0.646 -0.937 -0.646 h -0.739 c -0.603 0 -1.094 -0.49 -1.094 -1.094 v -4.961 c 0 -0.603 0.491 -1.094 1.094 -1.094 h 0.739 c 0.426 0 0.803 -0.259 0.936 -0.646 c 0.17 -0.491 0.372 -0.978 0.601 -1.447 c 0.178 -0.365 0.097 -0.81 -0.201 -1.109 l -0.53 -0.529 c -0.426 -0.427 -0.426 -1.121 0 -1.547 l 3.508 -3.508 c 0.428 -0.427 1.122 -0.426 1.547 0 l 0.529 0.53 c 0.298 0.299 0.746 0.379 1.108 0.201 c 0.47 -0.229 0.957 -0.432 1.448 -0.601 c 0.386 -0.133 0.645 -0.51 0.645 -0.937 v -0.739 c 0 -0.603 0.491 -1.094 1.094 -1.094 h 4.961 c 0.604 0 1.095 0.491 1.095 1.094 v 0.739 c 0 0.427 0.259 0.803 0.645 0.936 c 0.49 0.169 0.977 0.372 1.447 0.601 c 0.364 0.179 0.811 0.098 1.108 -0.201 l 0.53 -0.53 c 0.412 -0.412 1.133 -0.413 1.547 0 c 0.195 0.195 0.195 0.512 0 0.707 c -0.195 0.196 -0.512 0.195 -0.707 0.001 c -0.029 -0.032 -0.101 -0.033 -0.133 -0.001 l -0.53 0.53 c -0.601 0.601 -1.508 0.758 -2.255 0.393 c -0.434 -0.211 -0.883 -0.398 -1.334 -0.554 c -0.789 -0.272 -1.318 -1.029 -1.318 -1.881 v -0.739 c 0 -0.052 -0.043 -0.094 -0.095 -0.094 H 42.52 c -0.052 0 -0.094 0.042 -0.094 0.094 v 0.739 c 0 0.853 -0.53 1.609 -1.318 1.882 c -0.453 0.156 -0.902 0.342 -1.335 0.554 c -0.749 0.366 -1.654 0.208 -2.255 -0.393 l -0.529 -0.53 c -0.037 -0.038 -0.096 -0.036 -0.133 0 l -3.508 3.508 c -0.037 0.037 -0.037 0.097 0 0.134 l 0.529 0.529 c 0.601 0.601 0.758 1.507 0.393 2.255 c -0.211 0.433 -0.398 0.882 -0.554 1.334 c -0.273 0.789 -1.029 1.319 -1.881 1.319 h -0.739 c -0.052 0 -0.094 0.042 -0.094 0.094 v 4.961 c 0 0.052 0.042 0.094 0.094 0.094 h 0.739 c 0.853 0 1.609 0.53 1.882 1.319 c 0.154 0.448 0.341 0.897 0.554 1.334 c 0.366 0.748 0.208 1.654 -0.393 2.255 l -0.53 0.53 c -0.032 0.031 -0.031 0.102 0 0.133 l 3.508 3.508 c 0 -0.001 0.086 0 0.12 0 c 0.008 0 0.014 0 0.014 0 l 0.529 -0.529 c 0.601 -0.601 1.506 -0.76 2.255 -0.393 c 0.431 0.211 0.88 0.397 1.334 0.555 c 0.789 0.272 1.319 1.028 1.319 1.881 v 0.739 c 0 0.052 0.042 0.094 0.094 0.094 h 4.961 c 0.052 0 0.095 -0.042 0.095 -0.094 v -0.739 c 0 -0.854 0.53 -1.609 1.318 -1.881 c 0.452 -0.156 0.901 -0.343 1.334 -0.555 c 0.747 -0.367 1.654 -0.208 2.255 0.393 l 0.53 0.529 h 0.133 l 3.508 -3.508 v -0.133 l -0.529 -0.53 c -0.601 -0.601 -0.759 -1.507 -0.393 -2.255 c 0.212 -0.433 0.398 -0.882 0.555 -1.334 c 0.272 -0.789 1.028 -1.319 1.881 -1.319 h 0.739 c 0.052 0 0.094 -0.042 0.094 -0.094 v -4.961 c 0 -0.052 -0.042 -0.094 -0.094 -0.094 h -0.739 c -0.853 0 -1.608 -0.53 -1.881 -1.319 c -0.157 -0.454 -0.344 -0.903 -0.555 -1.334 c -0.366 -0.748 -0.209 -1.654 0.393 -2.255 l 0.529 -0.529 c -0.195 -0.195 -0.195 -0.578 -0.001 -0.773 c 0.194 -0.196 0.51 -0.263 0.708 -0.067 c 0.207 0.207 0.32 0.481 0.32 0.773 c 0.001 0.292 -0.113 0.567 -0.32 0.774 l -0.529 0.529 c -0.299 0.299 -0.38 0.744 -0.201 1.108 c 0.229 0.469 0.432 0.956 0.602 1.448 c 0.133 0.386 0.509 0.645 0.936 0.645 h 0.739 c 0.604 0 1.094 0.491 1.094 1.094 v 4.961 c 0 0.604 -0.49 1.094 -1.094 1.094 h -0.739 c -0.427 0 -0.803 0.26 -0.936 0.646 c -0.17 0.491 -0.372 0.979 -0.602 1.447 c -0.179 0.364 -0.098 0.81 0.201 1.108 l 0.529 0.53 c 0.206 0.205 0.32 0.479 0.32 0.771 c 0.001 0.293 -0.113 0.568 -0.32 0.775 l -3.508 3.508 c -0.207 0.207 -0.481 0.32 -0.773 0.32 c -0.001 0 -0.001 0 -0.002 0 c -0.292 0 -0.566 -0.114 -0.772 -0.321 l -0.529 -0.528 c -0.299 -0.298 -0.744 -0.379 -1.108 -0.201 c -0.469 0.229 -0.956 0.432 -1.447 0.602 c -0.386 0.133 -0.645 0.509 -0.645 0.936 v 0.739 C 48.575 59.51 48.084 60 47.48 60 z" style="stroke: none; stroke-width: 1; stroke-dasharray: none; stroke-linecap: butt; stroke-linejoin: miter; stroke-miterlimit: 10; fill: rgb(18,34,46); fill-rule: nonzero; opacity: 1;" transform=" matrix(1 0 0 1 0 0) " stroke-linecap="round" />
	<path d="M 45.006 49.722 c -1.253 0 -2.455 -0.493 -3.344 -1.383 c -0.979 -0.979 -1.478 -2.335 -1.368 -3.721 c 0.181 -2.285 2.04 -4.144 4.324 -4.325 c 0.514 -0.04 1.022 0.001 1.512 0.122 c 0.269 0.066 0.433 0.336 0.366 0.604 c -0.065 0.268 -0.333 0.436 -0.604 0.366 c -0.387 -0.095 -0.79 -0.128 -1.195 -0.095 c -1.799 0.142 -3.264 1.606 -3.406 3.406 c -0.086 1.094 0.307 2.164 1.078 2.935 s 1.839 1.163 2.935 1.078 c 1.8 -0.143 3.264 -1.606 3.406 -3.407 c 0.039 -0.5 -0.019 -0.991 -0.172 -1.461 c -0.085 -0.262 0.058 -0.544 0.32 -0.63 c 0.268 -0.085 0.545 0.059 0.631 0.321 c 0.194 0.595 0.267 1.217 0.217 1.849 c -0.18 2.285 -2.039 4.145 -4.324 4.324 C 45.256 49.717 45.131 49.722 45.006 49.722 z" style="stroke: none; stroke-width: 1; stroke-dasharray: none; stroke-linecap: butt; stroke-linejoin: miter; stroke-miterlimit: 10; fill: rgb(18,34,46); fill-rule: nonzero; opacity: 1;" transform=" matrix(1 0 0 1 0 0) " stroke-linecap="round" />
	<path d="M 45 90 C 20.187 90 0 69.813 0 45 C 0 20.187 20.187 0 45 0 c 10.68 0 21.033 3.807 29.153 10.719 c 0.21 0.179 0.235 0.495 0.057 0.705 c -0.18 0.211 -0.496 0.235 -0.705 0.057 C 65.565 4.722 55.442 1 45 1 C 20.738 1 1 20.738 1 45 s 19.738 44 44 44 s 44 -19.738 44 -44 c 0 -10.197 -3.568 -20.137 -10.048 -27.988 c -0.176 -0.213 -0.146 -0.528 0.067 -0.704 c 0.213 -0.175 0.528 -0.146 0.704 0.067 C 86.351 24.405 90 34.571 90 45 C 90 69.813 69.813 90 45 90 z" style="stroke: none; stroke-width: 1; stroke-dasharray: none; stroke-linecap: butt; stroke-linejoin: miter; stroke-miterlimit: 10; fill: rgb(18,34,46); fill-rule: nonzero; opacity: 1;" transform=" matrix(1 0 0 1 0 0) " stroke-linecap="round" />
	<path d="M 45 80 c -19.299 0 -35 -15.701 -35 -35 s 15.701 -35 35 -35 c 7.979 0 15.784 2.756 21.979 7.76 c 0.215 0.174 0.248 0.489 0.074 0.704 s -0.487 0.248 -0.703 0.075 C 60.333 13.677 52.751 11 45 11 c -18.748 0 -34 15.252 -34 34 c 0 18.748 15.252 34 34 34 c 18.748 0 34 -15.252 34 -34 c 0 -7.88 -2.757 -15.561 -7.764 -21.627 c -0.176 -0.213 -0.146 -0.528 0.067 -0.704 c 0.213 -0.175 0.528 -0.146 0.704 0.067 C 77.161 28.981 80 36.888 80 45 C 80 64.299 64.299 80 45 80 z" style="stroke: none; stroke-width: 1; stroke-dasharray: none; stroke-linecap: butt; stroke-linejoin: miter; stroke-miterlimit: 10; fill: rgb(18,34,46); fill-rule: nonzero; opacity: 1;" transform=" matrix(1 0 0 1 0 0) " stroke-linecap="round" />
	<path d="M 45 70 c -13.785 0 -25 -11.215 -25 -25 s 11.215 -25 25 -25 c 5.465 0 10.655 1.731 15.012 5.007 c 0.221 0.166 0.265 0.479 0.099 0.7 c -0.166 0.222 -0.481 0.264 -0.7 0.099 C 55.229 22.662 50.246 21 45 21 c -13.233 0 -24 10.767 -24 24 s 10.767 24 24 24 s 24 -10.767 24 -24 c 0 -5.154 -1.609 -10.066 -4.652 -14.204 c -0.164 -0.223 -0.116 -0.536 0.106 -0.699 c 0.221 -0.162 0.534 -0.117 0.698 0.106 C 68.324 34.515 70 39.631 70 45 C 70 58.785 58.785 70 45 70 z" style="stroke: none; stroke-width: 1; stroke-dasharray: none; stroke-linecap: butt; stroke-linejoin: miter; stroke-miterlimit: 10; fill: rgb(18,34,46); fill-rule: nonzero; opacity: 1;" transform=" matrix(1 0 0 1 0 0) " stroke-linecap="round" />
	<path d="M 89.5 7.563 c 0.276 0 0.5 -0.224 0.5 -0.5 s -0.224 -0.5 -0.5 -0.5 h -5.355 l 2.281 -2.281 H 89.5 c 0.276 0 0.5 -0.224 0.5 -0.5 s -0.224 -0.5 -0.5 -0.5 h -2.781 V 0.5 c 0 -0.276 -0.224 -0.5 -0.5 -0.5 s -0.5 0.224 -0.5 0.5 v 3.075 l -2.282 2.282 V 0.5 c 0 -0.276 -0.224 -0.5 -0.5 -0.5 s -0.5 0.224 -0.5 0.5 v 6.357 L 80 9.293 V 0.5 C 80 0.224 79.776 0 79.5 0 S 79 0.224 79 0.5 v 9.793 L 44.646 44.646 c -0.195 0.195 -0.195 0.512 0 0.707 C 44.744 45.451 44.872 45.5 45 45.5 s 0.256 -0.049 0.354 -0.146 L 79.707 11 H 89.5 c 0.276 0 0.5 -0.224 0.5 -0.5 S 89.776 10 89.5 10 h -8.793 l 2.437 -2.437 H 89.5 z" style="stroke: none; stroke-width: 1; stroke-dasharray: none; stroke-linecap: butt; stroke-linejoin: miter; stroke-miterlimit: 10; fill: rgb(18,34,46); fill-rule: nonzero; opacity: 1;" transform=" matrix(1 0 0 1 0 0) " stroke-linecap="round" />
</g>
</g>
</svg>